<svg width="50" height="50" viewBox="0 0 50 50" fill="none" xmlns="http://www.w3.org/2000/svg">
<g clip-path="url(#clip0_3_5)">
<mask id="mask0_3_5" style="mask-type:luminance" maskUnits="userSpaceOnUse" x="0" y="0" width="50" height="50">
<path d="M50 0H0V50H50V0Z" fill="white"/>
</mask>
<g mask="url(#mask0_3_5)">
<path d="M0 0H50V50H0V0Z" fill="#F7DF1E"/>
<path d="M13.1467 41.7835L16.9729 39.4678C17.7111 40.7767 18.3826 41.884 19.9934 41.884C21.5373 41.884 22.5109 41.2802 22.5109 38.9309V22.9548H27.2095V38.9973C27.2095 43.8639 24.3568 46.0792 20.1947 46.0792C16.4359 46.0792 14.2543 44.1328 13.1467 41.7835ZM29.7617 41.28L33.5875 39.0649C34.5947 40.7097 35.9037 41.9178 38.2193 41.9178C40.1664 41.9178 41.4078 40.9444 41.4078 39.6018C41.4078 37.9909 40.1324 37.4202 37.9844 36.4807L36.8099 35.9768C33.4199 34.534 31.1713 32.7215 31.1713 28.8954C31.1713 25.3712 33.8562 22.686 38.0517 22.686C41.0389 22.686 43.1869 23.7266 44.7307 26.4452L41.072 28.7948C40.2664 27.3516 39.3941 26.7811 38.0515 26.7811C36.6754 26.7811 35.8027 27.6538 35.8027 28.7948C35.8027 30.2043 36.6754 30.7753 38.689 31.6479L39.8637 32.1512C43.8578 33.8632 46.1064 35.6083 46.1064 39.5348C46.1064 43.7642 42.7838 46.0798 38.3199 46.0798C33.9568 46.0798 31.1377 43.9987 29.7617 41.28Z" fill="black"/>
</g>
</g>
<defs>
<clipPath id="clip0_3_5">
<rect width="50" height="50" fill="white"/>
</clipPath>
</defs>
</svg>
