<svg width="56" height="50" viewBox="0 0 56 50" fill="none" xmlns="http://www.w3.org/2000/svg">
<g clip-path="url(#clip0_3_3)">
<path fill-rule="evenodd" clip-rule="evenodd" d="M56 25.0069C56 21.2878 51.3563 17.7641 44.2333 15.5762C45.8786 8.29753 45.1448 2.50854 41.9273 0.653483C41.1471 0.215433 40.2643 -0.00541685 39.3704 0.0138346V2.56795C39.823 2.55534 40.2713 2.65751 40.674 2.86499C42.228 3.7561 42.898 7.15535 42.3737 11.5279C42.2462 12.6017 42.0409 13.7349 41.7905 14.891C39.4052 14.3148 36.9844 13.8981 34.5441 13.6434C33.0898 11.6329 31.5035 9.72179 29.7957 7.92277C33.5144 4.45028 37.0051 2.55412 39.3797 2.55412V0C36.2397 0 32.1338 2.24325 27.9754 6.13647C23.8208 2.26644 19.7148 0.0455729 16.5748 0.0455729V2.59969C18.9356 2.59969 22.4401 4.4869 26.1633 7.93009C24.4625 9.72282 22.8879 11.6318 21.451 13.6434C19.0053 13.8953 16.5797 14.3151 14.1913 14.8999C13.927 13.7577 13.7355 12.6473 13.5987 11.5828C13.061 7.21029 13.7262 3.81104 15.2668 2.90609C15.6697 2.69078 16.1231 2.58818 16.5793 2.60905V0.0594075C15.6788 0.0405609 14.7894 0.261267 14.0017 0.699056C10.7935 2.55412 10.0735 8.33415 11.7322 15.5916C4.62098 17.7816 0 21.2968 0 25.0069C0 28.726 4.6437 32.2498 11.7667 34.4377C10.1214 41.7163 10.8552 47.5053 14.0727 49.3603C14.8571 49.8 15.7446 50.0209 16.643 50C19.783 50 23.889 47.7568 28.0473 43.8635C32.2036 47.7336 36.3095 49.954 39.4516 49.954C40.3527 49.9732 41.2428 49.7525 42.0312 49.3144C45.2394 47.4593 45.9593 41.6793 44.3006 34.4218C51.3827 32.2375 56.0037 28.7105 56.0037 25.0049L56 25.0069ZM33.2044 25.0069C33.2044 23.9722 32.8984 22.9608 32.325 22.1004C31.7516 21.2401 30.9367 20.5696 29.9832 20.1736C29.0298 19.7777 27.9806 19.6741 26.9684 19.8759C25.9562 20.0778 25.0265 20.576 24.2967 21.3077C23.567 22.0393 23.07 22.9715 22.8687 23.9863C22.6674 25.0011 22.7707 26.053 23.1656 27.0089C23.5606 27.9649 24.2294 28.7819 25.0875 29.3568C25.9455 29.9316 26.9544 30.2384 27.9864 30.2384C28.6717 30.2386 29.3502 30.1033 29.9834 29.8404C30.6165 29.5776 31.1918 29.1922 31.6763 28.7064C32.1609 28.2206 32.5452 27.6438 32.8074 27.0091C33.0696 26.3743 33.2045 25.694 33.2044 25.0069ZM41.1383 17.3718C40.7146 18.8477 40.1902 20.3691 39.5961 21.8909C39.1265 20.977 38.6391 20.0598 38.1013 19.1447C37.5814 18.2292 37.0189 17.334 36.4585 16.4673C38.0819 16.7114 39.6436 17.0064 41.1383 17.3718ZM35.9114 29.5622C35.0226 31.1084 34.1066 32.5732 33.1589 33.9347C31.4592 34.0857 29.7364 34.163 28.0002 34.163C26.2774 34.163 24.555 34.0816 22.8642 33.9437C21.9162 32.5822 20.9912 31.1292 20.1044 29.5939C19.2386 28.0952 18.4472 26.5761 17.7302 25.0366C18.4344 23.5034 19.2372 21.9727 20.0894 20.4744C20.9782 18.9282 21.8942 17.4634 22.8419 16.1019C24.5416 15.9509 26.2644 15.8736 28.0006 15.8736C29.7234 15.8736 31.4458 15.955 33.1366 16.0929C34.0847 17.4544 35.0096 18.9075 35.8964 20.4427C36.7622 21.9415 37.5536 23.4606 38.2706 25C37.5522 26.5299 36.7697 28.0591 35.9114 29.5622ZM39.5981 28.0725C40.2134 29.6077 40.7373 31.1385 41.1748 32.6298C39.6801 32.996 38.1034 33.3061 36.4719 33.5437C37.0323 32.6619 37.5883 31.757 38.1172 30.8297C38.6366 29.9158 39.1289 28.9884 39.5981 28.0745V28.0725ZM28.0229 40.2832C26.9025 39.1189 25.8437 37.8965 24.8508 36.6211C25.8764 36.6667 26.9288 36.7025 27.9909 36.7025C29.0619 36.7025 30.1236 36.6797 31.1626 36.6211C30.1818 37.897 29.1338 39.1194 28.0229 40.2832ZM19.5326 33.5421C17.9092 33.2979 16.3471 33.0029 14.8524 32.6375C15.2761 31.1617 15.8004 29.6403 16.3946 28.1185C16.8642 29.0324 17.3516 29.9495 17.8893 30.8647C18.4271 31.7798 18.9742 32.6742 19.5346 33.5421H19.5326ZM27.9629 9.72778C29.0834 10.8912 30.1423 12.1126 31.1354 13.387C30.1098 13.3415 29.0574 13.3057 27.9953 13.3057C26.9243 13.3057 25.8626 13.3285 24.8236 13.387C25.8043 12.1121 26.8522 10.8906 27.9629 9.72778ZM19.5188 16.4673C18.9583 17.349 18.4023 18.254 17.8735 19.1813C17.3496 20.0952 16.8589 21.0124 16.3877 21.9275C15.7724 20.3923 15.2485 18.8615 14.811 17.3702C16.3102 17.0138 17.8873 16.7078 19.5188 16.4657V16.4673ZM9.18757 30.7959C5.14533 29.0686 2.5337 26.8026 2.5337 25.0069C2.5337 23.2113 5.14979 20.931 9.18757 19.2179C10.1673 18.7931 11.2428 18.4184 12.3503 18.0619C13.0493 20.44 13.908 22.7679 14.9206 25.0297C13.9196 27.2812 13.073 29.5986 12.3869 31.9657C11.2566 31.6093 10.1811 31.2211 9.18757 30.7959ZM15.3309 47.1488C13.7769 46.2577 13.1068 42.8585 13.6312 38.4859C13.7586 37.4121 13.964 36.2789 14.2144 35.1229C16.5995 35.699 19.0202 36.1158 21.4604 36.3704C22.9147 38.3809 24.501 40.292 26.2088 42.0911C22.4839 45.5587 18.9936 47.4597 16.6203 47.4597C16.1713 47.4643 15.7282 47.3575 15.3305 47.1488H15.3309ZM42.4057 38.431C42.9435 42.8035 42.2783 46.2028 40.7377 47.1077C40.3347 47.3231 39.8814 47.4257 39.4252 47.4048C37.0644 47.4048 33.5599 45.5176 29.8367 42.0744C31.5375 40.2817 33.1121 38.3726 34.549 36.3611C36.9951 36.1098 39.4209 35.6884 41.8087 35.0997C42.0659 36.1987 42.2652 37.311 42.4057 38.431ZM46.799 30.7959C45.8193 31.2207 44.7438 31.5955 43.6363 31.9519C42.9372 29.5737 42.0784 27.2456 41.0656 24.9837C42.0666 22.7322 42.9132 20.4148 43.5993 18.0477C44.7295 18.4041 45.7989 18.7925 46.8076 19.2126C50.8498 20.9399 53.461 23.206 53.461 25.0016C53.4521 26.8018 50.8405 29.0771 46.7982 30.7951L46.799 30.7959Z" fill="#00D8FF"/>
</g>
<defs>
<clipPath id="clip0_3_3">
<rect width="56" height="50" fill="white"/>
</clipPath>
</defs>
</svg>
